<svg width="673" height="549" viewBox="0 0 673 549" fill="none" xmlns="http://www.w3.org/2000/svg">
<rect x="2.5" y="2.5" width="668" height="436" fill="#C4C4C4" stroke="#ECECEC" stroke-width="5"/>
<rect x="20" y="400" width="615" height="149" rx="10" fill="#12372A"/>
<path d="M482.523 509L479.341 497.364H480.773L483.205 506.841H483.318L485.795 497.364H487.386L489.864 506.841H489.977L492.409 497.364H493.841L490.659 509H489.205L486.636 499.727H486.545L483.977 509H482.523ZM497.17 509.205C496.617 509.205 496.116 509.1 495.665 508.892C495.214 508.68 494.856 508.375 494.591 507.977C494.326 507.576 494.193 507.091 494.193 506.523C494.193 506.023 494.292 505.617 494.489 505.307C494.686 504.992 494.949 504.746 495.278 504.568C495.608 504.39 495.972 504.258 496.369 504.17C496.771 504.08 497.174 504.008 497.58 503.955C498.11 503.886 498.54 503.835 498.869 503.801C499.203 503.763 499.445 503.701 499.597 503.614C499.752 503.527 499.83 503.375 499.83 503.159V503.114C499.83 502.553 499.676 502.117 499.369 501.807C499.066 501.496 498.606 501.341 497.989 501.341C497.348 501.341 496.847 501.481 496.483 501.761C496.119 502.042 495.864 502.341 495.716 502.659L494.443 502.205C494.67 501.674 494.973 501.261 495.352 500.966C495.735 500.667 496.152 500.458 496.602 500.341C497.057 500.22 497.504 500.159 497.943 500.159C498.223 500.159 498.545 500.193 498.909 500.261C499.277 500.326 499.631 500.46 499.972 500.665C500.316 500.869 500.602 501.178 500.83 501.591C501.057 502.004 501.17 502.557 501.17 503.25V509H499.83V507.818H499.761C499.67 508.008 499.519 508.21 499.307 508.426C499.095 508.642 498.813 508.826 498.46 508.977C498.108 509.129 497.678 509.205 497.17 509.205ZM497.375 508C497.905 508 498.352 507.896 498.716 507.688C499.083 507.479 499.36 507.21 499.545 506.881C499.735 506.551 499.83 506.205 499.83 505.841V504.614C499.773 504.682 499.648 504.744 499.455 504.801C499.265 504.854 499.045 504.902 498.795 504.943C498.549 504.981 498.309 505.015 498.074 505.045C497.843 505.072 497.655 505.095 497.511 505.114C497.163 505.159 496.837 505.233 496.534 505.335C496.235 505.434 495.992 505.583 495.807 505.784C495.625 505.981 495.534 506.25 495.534 506.591C495.534 507.057 495.706 507.409 496.051 507.648C496.4 507.883 496.841 508 497.375 508ZM503.618 509V500.273H504.913V501.591H505.004C505.163 501.159 505.451 500.809 505.868 500.54C506.285 500.271 506.754 500.136 507.277 500.136C507.375 500.136 507.499 500.138 507.646 500.142C507.794 500.146 507.906 500.152 507.982 500.159V501.523C507.936 501.511 507.832 501.494 507.669 501.472C507.51 501.445 507.341 501.432 507.163 501.432C506.739 501.432 506.36 501.521 506.027 501.699C505.697 501.873 505.436 502.116 505.243 502.426C505.054 502.733 504.959 503.083 504.959 503.477V509H503.618ZM512.964 509.182C512.124 509.182 511.398 508.996 510.788 508.625C510.182 508.25 509.714 507.727 509.385 507.057C509.059 506.383 508.896 505.598 508.896 504.705C508.896 503.811 509.059 503.023 509.385 502.341C509.714 501.655 510.173 501.121 510.76 500.739C511.351 500.352 512.04 500.159 512.828 500.159C513.283 500.159 513.732 500.235 514.175 500.386C514.618 500.538 515.021 500.784 515.385 501.125C515.749 501.462 516.038 501.909 516.254 502.466C516.47 503.023 516.578 503.708 516.578 504.523V505.091H509.851V503.932H515.214C515.214 503.439 515.116 503 514.919 502.614C514.726 502.227 514.449 501.922 514.089 501.699C513.733 501.475 513.313 501.364 512.828 501.364C512.294 501.364 511.832 501.496 511.442 501.761C511.055 502.023 510.758 502.364 510.55 502.784C510.341 503.205 510.237 503.655 510.237 504.136V504.909C510.237 505.568 510.351 506.127 510.578 506.585C510.809 507.04 511.129 507.386 511.538 507.625C511.947 507.86 512.423 507.977 512.964 507.977C513.317 507.977 513.635 507.928 513.919 507.83C514.207 507.727 514.455 507.576 514.663 507.375C514.872 507.17 515.033 506.917 515.146 506.614L516.442 506.977C516.305 507.417 516.076 507.803 515.754 508.136C515.432 508.466 515.035 508.723 514.561 508.909C514.088 509.091 513.555 509.182 512.964 509.182ZM519.959 503.75V509H518.618V497.364H519.959V501.636H520.072C520.277 501.186 520.584 500.828 520.993 500.562C521.406 500.294 521.955 500.159 522.641 500.159C523.235 500.159 523.756 500.278 524.203 500.517C524.65 500.752 524.997 501.114 525.243 501.602C525.493 502.087 525.618 502.705 525.618 503.455V509H524.277V503.545C524.277 502.852 524.097 502.316 523.737 501.938C523.381 501.555 522.887 501.364 522.254 501.364C521.815 501.364 521.421 501.456 521.072 501.642C520.728 501.828 520.455 502.098 520.254 502.455C520.057 502.811 519.959 503.242 519.959 503.75ZM531.616 509.182C530.829 509.182 530.137 508.994 529.543 508.619C528.952 508.244 528.49 507.72 528.156 507.045C527.827 506.371 527.662 505.583 527.662 504.682C527.662 503.773 527.827 502.979 528.156 502.301C528.49 501.623 528.952 501.097 529.543 500.722C530.137 500.347 530.829 500.159 531.616 500.159C532.404 500.159 533.094 500.347 533.685 500.722C534.279 501.097 534.741 501.623 535.071 502.301C535.404 502.979 535.571 503.773 535.571 504.682C535.571 505.583 535.404 506.371 535.071 507.045C534.741 507.72 534.279 508.244 533.685 508.619C533.094 508.994 532.404 509.182 531.616 509.182ZM531.616 507.977C532.215 507.977 532.707 507.824 533.094 507.517C533.48 507.21 533.766 506.807 533.952 506.307C534.137 505.807 534.23 505.265 534.23 504.682C534.23 504.098 534.137 503.555 533.952 503.051C533.766 502.547 533.48 502.14 533.094 501.83C532.707 501.519 532.215 501.364 531.616 501.364C531.018 501.364 530.526 501.519 530.139 501.83C529.753 502.14 529.467 502.547 529.281 503.051C529.096 503.555 529.003 504.098 529.003 504.682C529.003 505.265 529.096 505.807 529.281 506.307C529.467 506.807 529.753 507.21 530.139 507.517C530.526 507.824 531.018 507.977 531.616 507.977ZM543.118 505.432V500.273H544.459V509H543.118V507.523H543.027C542.822 507.966 542.504 508.343 542.072 508.653C541.641 508.96 541.095 509.114 540.436 509.114C539.891 509.114 539.406 508.994 538.982 508.756C538.557 508.513 538.224 508.15 537.982 507.665C537.739 507.176 537.618 506.561 537.618 505.818V500.273H538.959V505.727C538.959 506.364 539.137 506.871 539.493 507.25C539.853 507.629 540.311 507.818 540.868 507.818C541.201 507.818 541.54 507.733 541.885 507.562C542.233 507.392 542.525 507.131 542.76 506.778C542.999 506.426 543.118 505.977 543.118 505.432ZM553.097 502.227L551.892 502.568C551.816 502.367 551.705 502.172 551.557 501.983C551.413 501.79 551.216 501.631 550.966 501.506C550.716 501.381 550.396 501.318 550.006 501.318C549.472 501.318 549.027 501.441 548.67 501.688C548.318 501.93 548.142 502.239 548.142 502.614C548.142 502.947 548.263 503.21 548.506 503.403C548.748 503.597 549.127 503.758 549.642 503.886L550.938 504.205C551.718 504.394 552.299 504.684 552.682 505.074C553.064 505.46 553.256 505.958 553.256 506.568C553.256 507.068 553.112 507.515 552.824 507.909C552.54 508.303 552.142 508.614 551.631 508.841C551.119 509.068 550.525 509.182 549.847 509.182C548.956 509.182 548.22 508.989 547.636 508.602C547.053 508.216 546.684 507.652 546.528 506.909L547.801 506.591C547.922 507.061 548.152 507.413 548.489 507.648C548.83 507.883 549.275 508 549.824 508C550.449 508 550.945 507.867 551.312 507.602C551.684 507.333 551.869 507.011 551.869 506.636C551.869 506.333 551.763 506.08 551.551 505.875C551.339 505.667 551.013 505.511 550.574 505.409L549.119 505.068C548.32 504.879 547.733 504.585 547.358 504.188C546.987 503.786 546.801 503.284 546.801 502.682C546.801 502.189 546.939 501.754 547.216 501.375C547.496 500.996 547.877 500.699 548.358 500.483C548.843 500.267 549.392 500.159 550.006 500.159C550.869 500.159 551.547 500.348 552.04 500.727C552.536 501.106 552.888 501.606 553.097 502.227ZM558.933 509.182C558.092 509.182 557.367 508.996 556.757 508.625C556.151 508.25 555.683 507.727 555.354 507.057C555.028 506.383 554.865 505.598 554.865 504.705C554.865 503.811 555.028 503.023 555.354 502.341C555.683 501.655 556.142 501.121 556.729 500.739C557.32 500.352 558.009 500.159 558.797 500.159C559.251 500.159 559.7 500.235 560.143 500.386C560.587 500.538 560.99 500.784 561.354 501.125C561.717 501.462 562.007 501.909 562.223 502.466C562.439 503.023 562.547 503.708 562.547 504.523V505.091H555.82V503.932H561.183C561.183 503.439 561.085 503 560.888 502.614C560.695 502.227 560.418 501.922 560.058 501.699C559.702 501.475 559.282 501.364 558.797 501.364C558.263 501.364 557.801 501.496 557.411 501.761C557.024 502.023 556.727 502.364 556.518 502.784C556.31 503.205 556.206 503.655 556.206 504.136V504.909C556.206 505.568 556.32 506.127 556.547 506.585C556.778 507.04 557.098 507.386 557.507 507.625C557.916 507.86 558.392 507.977 558.933 507.977C559.286 507.977 559.604 507.928 559.888 507.83C560.176 507.727 560.424 507.576 560.632 507.375C560.84 507.17 561.001 506.917 561.115 506.614L562.411 506.977C562.274 507.417 562.045 507.803 561.723 508.136C561.401 508.466 561.003 508.723 560.53 508.909C560.056 509.091 559.524 509.182 558.933 509.182Z" fill="white"/>
<path d="M488.544 479.832C485.856 479.832 483.403 479.181 481.184 477.88C478.965 476.579 477.195 474.829 475.872 472.632C474.571 470.413 473.92 467.96 473.92 465.272H482.752C482.752 466.296 483.008 467.245 483.52 468.12C484.032 468.995 484.725 469.699 485.6 470.232C486.475 470.744 487.456 471 488.544 471C489.589 471 490.549 470.744 491.424 470.232C492.32 469.699 493.035 468.995 493.568 468.12C494.101 467.245 494.368 466.296 494.368 465.272C494.368 463.864 493.984 462.691 493.216 461.752C492.448 460.813 491.371 460.109 489.984 459.64C488.597 459.171 486.976 458.936 485.12 458.936V452.184C487.595 452.184 489.547 451.747 490.976 450.872C492.405 449.976 493.12 448.653 493.12 446.904C493.12 446.029 492.907 445.24 492.48 444.536C492.053 443.811 491.477 443.235 490.752 442.808C490.027 442.36 489.227 442.136 488.352 442.136C487.477 442.136 486.613 442.36 485.76 442.808C484.907 443.235 484.203 443.811 483.648 444.536C483.115 445.24 482.848 446.029 482.848 446.904H474.016C474.016 445.027 474.4 443.267 475.168 441.624C475.936 439.981 476.981 438.541 478.304 437.304C479.648 436.045 481.173 435.064 482.88 434.36C484.587 433.656 486.379 433.304 488.256 433.304C490.709 433.304 492.971 433.912 495.04 435.128C497.131 436.344 498.805 437.987 500.064 440.056C501.323 442.104 501.952 444.387 501.952 446.904C501.952 448.504 501.589 450.115 500.864 451.736C500.16 453.357 499.125 454.52 497.76 455.224C498.955 455.672 499.947 456.44 500.736 457.528C501.547 458.595 502.155 459.821 502.56 461.208C502.987 462.573 503.2 463.928 503.2 465.272C503.2 467.939 502.539 470.381 501.216 472.6C499.893 474.797 498.123 476.557 495.904 477.88C493.685 479.181 491.232 479.832 488.544 479.832ZM522.949 479.832C520.026 479.832 517.381 479.128 515.013 477.72C512.666 476.291 510.8 474.403 509.413 472.056C508.048 469.688 507.365 467.107 507.365 464.312H516.197C516.197 465.549 516.496 466.68 517.093 467.704C517.712 468.707 518.533 469.507 519.557 470.104C520.581 470.701 521.712 471 522.949 471C524.165 471 525.274 470.701 526.277 470.104C527.301 469.507 528.112 468.707 528.709 467.704C529.328 466.68 529.637 465.549 529.637 464.312C529.637 463.075 529.381 461.933 528.869 460.888C528.378 459.843 527.525 459.011 526.309 458.392C525.093 457.752 523.418 457.432 521.285 457.432H509.573L514.469 434.2H536.805V443.032H521.637L520.485 448.6L522.981 448.664C526.032 448.771 528.709 449.528 531.013 450.936C533.338 452.344 535.162 454.211 536.485 456.536C537.808 458.861 538.469 461.453 538.469 464.312C538.469 466.424 538.064 468.419 537.253 470.296C536.464 472.173 535.354 473.827 533.925 475.256C532.517 476.685 530.874 477.805 528.997 478.616C527.12 479.427 525.104 479.832 522.949 479.832ZM556.457 475.8V464.216H544.873V455.384H556.457V443.8H565.289V455.384H576.873V464.216H565.289V475.8H556.457Z" fill="#F1C30C"/>
<path d="M282.773 499.273C282.705 498.697 282.428 498.25 281.943 497.932C281.458 497.614 280.864 497.455 280.159 497.455C279.644 497.455 279.193 497.538 278.807 497.705C278.424 497.871 278.125 498.1 277.909 498.392C277.697 498.684 277.591 499.015 277.591 499.386C277.591 499.697 277.665 499.964 277.812 500.188C277.964 500.407 278.157 500.591 278.392 500.739C278.627 500.883 278.873 501.002 279.131 501.097C279.388 501.187 279.625 501.261 279.841 501.318L281.023 501.636C281.326 501.716 281.663 501.826 282.034 501.966C282.409 502.106 282.767 502.297 283.108 502.54C283.453 502.778 283.737 503.085 283.96 503.46C284.184 503.835 284.295 504.295 284.295 504.841C284.295 505.47 284.131 506.038 283.801 506.545C283.475 507.053 282.998 507.456 282.369 507.756C281.744 508.055 280.985 508.205 280.091 508.205C279.258 508.205 278.536 508.07 277.926 507.801C277.32 507.532 276.843 507.157 276.494 506.676C276.15 506.195 275.955 505.636 275.909 505H277.364C277.402 505.439 277.549 505.803 277.807 506.091C278.068 506.375 278.398 506.587 278.795 506.727C279.197 506.864 279.629 506.932 280.091 506.932C280.629 506.932 281.112 506.845 281.54 506.67C281.968 506.492 282.307 506.246 282.557 505.932C282.807 505.614 282.932 505.242 282.932 504.818C282.932 504.432 282.824 504.117 282.608 503.875C282.392 503.633 282.108 503.436 281.756 503.284C281.403 503.133 281.023 503 280.614 502.886L279.182 502.477C278.273 502.216 277.553 501.843 277.023 501.358C276.492 500.873 276.227 500.239 276.227 499.455C276.227 498.803 276.403 498.235 276.756 497.75C277.112 497.261 277.589 496.883 278.188 496.614C278.79 496.341 279.462 496.205 280.205 496.205C280.955 496.205 281.621 496.339 282.205 496.608C282.788 496.873 283.25 497.237 283.591 497.699C283.936 498.161 284.117 498.686 284.136 499.273H282.773ZM288.999 508.205C288.446 508.205 287.944 508.1 287.493 507.892C287.042 507.68 286.684 507.375 286.419 506.977C286.154 506.576 286.021 506.091 286.021 505.523C286.021 505.023 286.12 504.617 286.317 504.307C286.514 503.992 286.777 503.746 287.107 503.568C287.436 503.39 287.8 503.258 288.197 503.17C288.599 503.08 289.002 503.008 289.408 502.955C289.938 502.886 290.368 502.835 290.697 502.801C291.031 502.763 291.273 502.701 291.425 502.614C291.58 502.527 291.658 502.375 291.658 502.159V502.114C291.658 501.553 291.504 501.117 291.197 500.807C290.894 500.496 290.434 500.341 289.817 500.341C289.177 500.341 288.675 500.481 288.311 500.761C287.947 501.042 287.692 501.341 287.544 501.659L286.271 501.205C286.499 500.674 286.802 500.261 287.18 499.966C287.563 499.667 287.98 499.458 288.43 499.341C288.885 499.22 289.332 499.159 289.771 499.159C290.052 499.159 290.374 499.193 290.737 499.261C291.105 499.326 291.459 499.46 291.8 499.665C292.144 499.869 292.43 500.178 292.658 500.591C292.885 501.004 292.999 501.557 292.999 502.25V508H291.658V506.818H291.589C291.499 507.008 291.347 507.21 291.135 507.426C290.923 507.642 290.641 507.826 290.288 507.977C289.936 508.129 289.506 508.205 288.999 508.205ZM289.203 507C289.733 507 290.18 506.896 290.544 506.688C290.911 506.479 291.188 506.21 291.374 505.881C291.563 505.551 291.658 505.205 291.658 504.841V503.614C291.601 503.682 291.476 503.744 291.283 503.801C291.093 503.854 290.874 503.902 290.624 503.943C290.377 503.981 290.137 504.015 289.902 504.045C289.671 504.072 289.483 504.095 289.339 504.114C288.991 504.159 288.665 504.233 288.362 504.335C288.063 504.434 287.821 504.583 287.635 504.784C287.453 504.981 287.362 505.25 287.362 505.591C287.362 506.057 287.535 506.409 287.879 506.648C288.228 506.883 288.669 507 289.203 507ZM299.241 499.273V500.409H294.719V499.273H299.241ZM296.037 497.182H297.378V505.5C297.378 505.879 297.433 506.163 297.543 506.352C297.656 506.538 297.8 506.663 297.974 506.727C298.152 506.788 298.34 506.818 298.537 506.818C298.685 506.818 298.806 506.811 298.901 506.795C298.995 506.777 299.071 506.761 299.128 506.75L299.401 507.955C299.31 507.989 299.183 508.023 299.02 508.057C298.857 508.095 298.651 508.114 298.401 508.114C298.022 508.114 297.651 508.032 297.287 507.869C296.927 507.706 296.628 507.458 296.389 507.125C296.154 506.792 296.037 506.371 296.037 505.864V497.182ZM301.259 508V499.273H302.599V508H301.259ZM301.94 497.818C301.679 497.818 301.454 497.729 301.264 497.551C301.079 497.373 300.986 497.159 300.986 496.909C300.986 496.659 301.079 496.445 301.264 496.267C301.454 496.089 301.679 496 301.94 496C302.202 496 302.425 496.089 302.611 496.267C302.8 496.445 302.895 496.659 302.895 496.909C302.895 497.159 302.8 497.373 302.611 497.551C302.425 497.729 302.202 497.818 301.94 497.818ZM311.237 501.227L310.033 501.568C309.957 501.367 309.845 501.172 309.697 500.983C309.554 500.79 309.357 500.631 309.107 500.506C308.857 500.381 308.536 500.318 308.146 500.318C307.612 500.318 307.167 500.441 306.811 500.688C306.459 500.93 306.283 501.239 306.283 501.614C306.283 501.947 306.404 502.21 306.646 502.403C306.889 502.597 307.268 502.758 307.783 502.886L309.078 503.205C309.858 503.394 310.44 503.684 310.822 504.074C311.205 504.46 311.396 504.958 311.396 505.568C311.396 506.068 311.252 506.515 310.964 506.909C310.68 507.303 310.283 507.614 309.771 507.841C309.26 508.068 308.665 508.182 307.987 508.182C307.097 508.182 306.36 507.989 305.777 507.602C305.194 507.216 304.824 506.652 304.669 505.909L305.942 505.591C306.063 506.061 306.292 506.413 306.629 506.648C306.97 506.883 307.415 507 307.964 507C308.589 507 309.086 506.867 309.453 506.602C309.824 506.333 310.01 506.011 310.01 505.636C310.01 505.333 309.904 505.08 309.692 504.875C309.48 504.667 309.154 504.511 308.714 504.409L307.26 504.068C306.461 503.879 305.874 503.585 305.499 503.188C305.127 502.786 304.942 502.284 304.942 501.682C304.942 501.189 305.08 500.754 305.357 500.375C305.637 499.996 306.018 499.699 306.499 499.483C306.983 499.267 307.533 499.159 308.146 499.159C309.01 499.159 309.688 499.348 310.18 499.727C310.677 500.106 311.029 500.606 311.237 501.227ZM317.301 499.273V500.409H312.597V499.273H317.301ZM314.006 508V498.068C314.006 497.568 314.123 497.152 314.358 496.818C314.593 496.485 314.898 496.235 315.273 496.068C315.648 495.902 316.044 495.818 316.46 495.818C316.79 495.818 317.059 495.845 317.267 495.898C317.475 495.951 317.631 496 317.733 496.045L317.347 497.205C317.278 497.182 317.184 497.153 317.062 497.119C316.945 497.085 316.79 497.068 316.597 497.068C316.153 497.068 315.833 497.18 315.636 497.403C315.443 497.627 315.347 497.955 315.347 498.386V508H314.006ZM319.18 508V499.273H320.521V508H319.18ZM319.862 497.818C319.601 497.818 319.375 497.729 319.186 497.551C319 497.373 318.908 497.159 318.908 496.909C318.908 496.659 319 496.445 319.186 496.267C319.375 496.089 319.601 496 319.862 496C320.124 496 320.347 496.089 320.533 496.267C320.722 496.445 320.817 496.659 320.817 496.909C320.817 497.159 320.722 497.373 320.533 497.551C320.347 497.729 320.124 497.818 319.862 497.818ZM326.636 508.182C325.795 508.182 325.07 507.996 324.46 507.625C323.854 507.25 323.386 506.727 323.057 506.057C322.731 505.383 322.568 504.598 322.568 503.705C322.568 502.811 322.731 502.023 323.057 501.341C323.386 500.655 323.845 500.121 324.432 499.739C325.023 499.352 325.712 499.159 326.5 499.159C326.955 499.159 327.403 499.235 327.847 499.386C328.29 499.538 328.693 499.784 329.057 500.125C329.42 500.462 329.71 500.909 329.926 501.466C330.142 502.023 330.25 502.708 330.25 503.523V504.091H323.523V502.932H328.886C328.886 502.439 328.788 502 328.591 501.614C328.398 501.227 328.121 500.922 327.761 500.699C327.405 500.475 326.985 500.364 326.5 500.364C325.966 500.364 325.504 500.496 325.114 500.761C324.727 501.023 324.43 501.364 324.222 501.784C324.013 502.205 323.909 502.655 323.909 503.136V503.909C323.909 504.568 324.023 505.127 324.25 505.585C324.481 506.04 324.801 506.386 325.21 506.625C325.619 506.86 326.095 506.977 326.636 506.977C326.989 506.977 327.307 506.928 327.591 506.83C327.879 506.727 328.127 506.576 328.335 506.375C328.544 506.17 328.705 505.917 328.818 505.614L330.114 505.977C329.977 506.417 329.748 506.803 329.426 507.136C329.104 507.466 328.706 507.723 328.233 507.909C327.759 508.091 327.227 508.182 326.636 508.182ZM335.585 508.182C334.858 508.182 334.216 507.998 333.659 507.631C333.102 507.259 332.667 506.737 332.352 506.062C332.038 505.384 331.881 504.583 331.881 503.659C331.881 502.742 332.038 501.947 332.352 501.273C332.667 500.598 333.104 500.078 333.665 499.71C334.225 499.343 334.873 499.159 335.608 499.159C336.176 499.159 336.625 499.254 336.955 499.443C337.288 499.629 337.542 499.841 337.716 500.08C337.894 500.314 338.032 500.508 338.131 500.659H338.244V496.364H339.585V508H338.29V506.659H338.131C338.032 506.818 337.892 507.019 337.71 507.261C337.528 507.5 337.269 507.714 336.932 507.903C336.595 508.089 336.146 508.182 335.585 508.182ZM335.767 506.977C336.305 506.977 336.759 506.837 337.131 506.557C337.502 506.273 337.784 505.881 337.977 505.381C338.17 504.877 338.267 504.295 338.267 503.636C338.267 502.985 338.172 502.415 337.983 501.926C337.794 501.434 337.513 501.051 337.142 500.778C336.771 500.502 336.313 500.364 335.767 500.364C335.199 500.364 334.725 500.509 334.347 500.801C333.972 501.089 333.689 501.481 333.5 501.977C333.314 502.47 333.222 503.023 333.222 503.636C333.222 504.258 333.316 504.822 333.506 505.33C333.699 505.833 333.983 506.235 334.358 506.534C334.737 506.83 335.206 506.977 335.767 506.977ZM356.273 500H354.864C354.78 499.595 354.634 499.239 354.426 498.932C354.222 498.625 353.972 498.367 353.676 498.159C353.384 497.947 353.061 497.788 352.705 497.682C352.348 497.576 351.977 497.523 351.591 497.523C350.886 497.523 350.248 497.701 349.676 498.057C349.108 498.413 348.655 498.938 348.318 499.631C347.985 500.324 347.818 501.174 347.818 502.182C347.818 503.189 347.985 504.04 348.318 504.733C348.655 505.426 349.108 505.951 349.676 506.307C350.248 506.663 350.886 506.841 351.591 506.841C351.977 506.841 352.348 506.788 352.705 506.682C353.061 506.576 353.384 506.419 353.676 506.21C353.972 505.998 354.222 505.739 354.426 505.432C354.634 505.121 354.78 504.765 354.864 504.364H356.273C356.167 504.958 355.973 505.491 355.693 505.96C355.413 506.43 355.064 506.83 354.648 507.159C354.231 507.485 353.763 507.733 353.244 507.903C352.729 508.074 352.178 508.159 351.591 508.159C350.598 508.159 349.716 507.917 348.943 507.432C348.17 506.947 347.563 506.258 347.119 505.364C346.676 504.47 346.455 503.409 346.455 502.182C346.455 500.955 346.676 499.894 347.119 499C347.563 498.106 348.17 497.417 348.943 496.932C349.716 496.447 350.598 496.205 351.591 496.205C352.178 496.205 352.729 496.29 353.244 496.46C353.763 496.631 354.231 496.881 354.648 497.21C355.064 497.536 355.413 497.934 355.693 498.403C355.973 498.869 356.167 499.402 356.273 500ZM359.709 496.364V508H358.368V496.364H359.709ZM362.165 508V499.273H363.506V508H362.165ZM362.847 497.818C362.585 497.818 362.36 497.729 362.17 497.551C361.985 497.373 361.892 497.159 361.892 496.909C361.892 496.659 361.985 496.445 362.17 496.267C362.36 496.089 362.585 496 362.847 496C363.108 496 363.331 496.089 363.517 496.267C363.706 496.445 363.801 496.659 363.801 496.909C363.801 497.159 363.706 497.373 363.517 497.551C363.331 497.729 363.108 497.818 362.847 497.818ZM369.621 508.182C368.78 508.182 368.054 507.996 367.445 507.625C366.839 507.25 366.371 506.727 366.041 506.057C365.715 505.383 365.553 504.598 365.553 503.705C365.553 502.811 365.715 502.023 366.041 501.341C366.371 500.655 366.829 500.121 367.416 499.739C368.007 499.352 368.696 499.159 369.484 499.159C369.939 499.159 370.388 499.235 370.831 499.386C371.274 499.538 371.678 499.784 372.041 500.125C372.405 500.462 372.695 500.909 372.911 501.466C373.126 502.023 373.234 502.708 373.234 503.523V504.091H366.507V502.932H371.871C371.871 502.439 371.772 502 371.575 501.614C371.382 501.227 371.106 500.922 370.746 500.699C370.39 500.475 369.969 500.364 369.484 500.364C368.95 500.364 368.488 500.496 368.098 500.761C367.712 501.023 367.414 501.364 367.206 501.784C366.998 502.205 366.893 502.655 366.893 503.136V503.909C366.893 504.568 367.007 505.127 367.234 505.585C367.465 506.04 367.786 506.386 368.195 506.625C368.604 506.86 369.079 506.977 369.621 506.977C369.973 506.977 370.291 506.928 370.575 506.83C370.863 506.727 371.111 506.576 371.32 506.375C371.528 506.17 371.689 505.917 371.803 505.614L373.098 505.977C372.962 506.417 372.732 506.803 372.411 507.136C372.089 507.466 371.691 507.723 371.217 507.909C370.744 508.091 370.212 508.182 369.621 508.182ZM376.615 502.75V508H375.274V499.273H376.57V500.636H376.683C376.888 500.193 377.198 499.837 377.615 499.568C378.032 499.295 378.57 499.159 379.229 499.159C379.82 499.159 380.337 499.28 380.78 499.523C381.223 499.761 381.568 500.125 381.814 500.614C382.06 501.098 382.183 501.712 382.183 502.455V508H380.842V502.545C380.842 501.86 380.664 501.326 380.308 500.943C379.952 500.557 379.464 500.364 378.842 500.364C378.414 500.364 378.032 500.456 377.695 500.642C377.361 500.828 377.098 501.098 376.905 501.455C376.712 501.811 376.615 502.242 376.615 502.75ZM388.429 499.273V500.409H383.906V499.273H388.429ZM385.224 497.182H386.565V505.5C386.565 505.879 386.62 506.163 386.73 506.352C386.844 506.538 386.988 506.663 387.162 506.727C387.34 506.788 387.527 506.818 387.724 506.818C387.872 506.818 387.993 506.811 388.088 506.795C388.183 506.777 388.259 506.761 388.315 506.75L388.588 507.955C388.497 507.989 388.37 508.023 388.207 508.057C388.045 508.095 387.838 508.114 387.588 508.114C387.209 508.114 386.838 508.032 386.474 507.869C386.115 507.706 385.815 507.458 385.577 507.125C385.342 506.792 385.224 506.371 385.224 505.864V497.182ZM396.472 501.227L395.267 501.568C395.191 501.367 395.08 501.172 394.932 500.983C394.788 500.79 394.591 500.631 394.341 500.506C394.091 500.381 393.771 500.318 393.381 500.318C392.847 500.318 392.402 500.441 392.045 500.688C391.693 500.93 391.517 501.239 391.517 501.614C391.517 501.947 391.638 502.21 391.881 502.403C392.123 502.597 392.502 502.758 393.017 502.886L394.312 503.205C395.093 503.394 395.674 503.684 396.057 504.074C396.439 504.46 396.631 504.958 396.631 505.568C396.631 506.068 396.487 506.515 396.199 506.909C395.915 507.303 395.517 507.614 395.006 507.841C394.494 508.068 393.9 508.182 393.222 508.182C392.331 508.182 391.595 507.989 391.011 507.602C390.428 507.216 390.059 506.652 389.903 505.909L391.176 505.591C391.297 506.061 391.527 506.413 391.864 506.648C392.205 506.883 392.65 507 393.199 507C393.824 507 394.32 506.867 394.688 506.602C395.059 506.333 395.244 506.011 395.244 505.636C395.244 505.333 395.138 505.08 394.926 504.875C394.714 504.667 394.388 504.511 393.949 504.409L392.494 504.068C391.695 503.879 391.108 503.585 390.733 503.188C390.362 502.786 390.176 502.284 390.176 501.682C390.176 501.189 390.314 500.754 390.591 500.375C390.871 499.996 391.252 499.699 391.733 499.483C392.218 499.267 392.767 499.159 393.381 499.159C394.244 499.159 394.922 499.348 395.415 499.727C395.911 500.106 396.263 500.606 396.472 501.227Z" fill="white"/>
<path d="M260.854 479V443.032H254.966L257.334 434.2H269.686V479H260.854ZM292.605 479.832C289.683 479.832 287.037 479.128 284.669 477.72C282.323 476.291 280.456 474.403 279.069 472.056C277.704 469.688 277.021 467.107 277.021 464.312H285.853C285.853 465.549 286.152 466.68 286.749 467.704C287.368 468.707 288.189 469.507 289.213 470.104C290.237 470.701 291.368 471 292.605 471C293.821 471 294.931 470.701 295.933 470.104C296.957 469.507 297.768 468.707 298.365 467.704C298.984 466.68 299.293 465.549 299.293 464.312C299.293 463.075 299.037 461.933 298.525 460.888C298.035 459.843 297.181 459.011 295.965 458.392C294.749 457.752 293.075 457.432 290.941 457.432H279.229L284.125 434.2H306.461V443.032H291.293L290.141 448.6L292.637 448.664C295.688 448.771 298.365 449.528 300.669 450.936C302.995 452.344 304.819 454.211 306.141 456.536C307.464 458.861 308.125 461.453 308.125 464.312C308.125 466.424 307.72 468.419 306.909 470.296C306.12 472.173 305.011 473.827 303.581 475.256C302.173 476.685 300.531 477.805 298.653 478.616C296.776 479.427 294.76 479.832 292.605 479.832ZM329.487 479.832C326.906 479.832 324.549 479.235 322.415 478.04C320.282 476.824 318.426 475.149 316.847 473.016C315.29 470.883 314.085 468.419 313.231 465.624C312.378 462.808 311.951 459.8 311.951 456.6C311.951 453.4 312.378 450.403 313.231 447.608C314.085 444.792 315.29 442.317 316.847 440.184C318.426 438.051 320.282 436.387 322.415 435.192C324.549 433.976 326.906 433.368 329.487 433.368C332.069 433.368 334.426 433.976 336.559 435.192C338.693 436.387 340.527 438.051 342.063 440.184C343.621 442.317 344.826 444.792 345.679 447.608C346.533 450.403 346.959 453.4 346.959 456.6C346.959 459.8 346.533 462.808 345.679 465.624C344.826 468.419 343.621 470.883 342.063 473.016C340.527 475.149 338.693 476.824 336.559 478.04C334.426 479.235 332.069 479.832 329.487 479.832ZM329.487 471C331.599 471 333.338 470.317 334.703 468.952C336.069 467.587 337.071 465.805 337.711 463.608C338.373 461.411 338.703 459.075 338.703 456.6C338.703 453.976 338.351 451.576 337.647 449.4C336.965 447.224 335.941 445.485 334.575 444.184C333.21 442.861 331.514 442.2 329.487 442.2C327.887 442.2 326.501 442.595 325.327 443.384C324.175 444.173 323.215 445.251 322.447 446.616C321.701 447.981 321.135 449.528 320.751 451.256C320.389 452.963 320.207 454.744 320.207 456.6C320.207 459.075 320.538 461.411 321.199 463.608C321.882 465.784 322.906 467.565 324.271 468.952C325.658 470.317 327.397 471 329.487 471ZM386.698 479H375.178L363.242 462.232L361.578 464.216V479H352.746V434.2H361.578V450.488L375.21 434.2H386.73L369.002 455.32L386.698 479ZM401.613 475.8V464.216H390.029V455.384H401.613V443.8H410.445V455.384H422.029V464.216H410.445V475.8H401.613Z" fill="#F1C30C"/>
<path d="M81.4091 498.364H83.0227L86.25 503.795H86.3864L89.6136 498.364H91.2273L87.0227 505.205V510H85.6136V505.205L81.4091 498.364ZM95.2926 510.182C94.4517 510.182 93.7263 509.996 93.1165 509.625C92.5104 509.25 92.0426 508.727 91.7131 508.057C91.3873 507.383 91.2244 506.598 91.2244 505.705C91.2244 504.811 91.3873 504.023 91.7131 503.341C92.0426 502.655 92.5009 502.121 93.0881 501.739C93.679 501.352 94.3684 501.159 95.1562 501.159C95.6108 501.159 96.0597 501.235 96.5028 501.386C96.946 501.538 97.3494 501.784 97.7131 502.125C98.0767 502.462 98.3665 502.909 98.5824 503.466C98.7983 504.023 98.9062 504.708 98.9062 505.523V506.091H92.179V504.932H97.5426C97.5426 504.439 97.4441 504 97.2472 503.614C97.054 503.227 96.7775 502.922 96.4176 502.699C96.0616 502.475 95.6411 502.364 95.1562 502.364C94.6222 502.364 94.16 502.496 93.7699 502.761C93.3835 503.023 93.0862 503.364 92.8778 503.784C92.6695 504.205 92.5653 504.655 92.5653 505.136V505.909C92.5653 506.568 92.679 507.127 92.9062 507.585C93.1373 508.04 93.4574 508.386 93.8665 508.625C94.2756 508.86 94.7509 508.977 95.2926 508.977C95.6449 508.977 95.9631 508.928 96.2472 508.83C96.535 508.727 96.7831 508.576 96.9915 508.375C97.1998 508.17 97.3608 507.917 97.4744 507.614L98.7699 507.977C98.6335 508.417 98.4044 508.803 98.0824 509.136C97.7604 509.466 97.3627 509.723 96.8892 509.909C96.4157 510.091 95.8835 510.182 95.2926 510.182ZM103.514 510.205C102.961 510.205 102.459 510.1 102.009 509.892C101.558 509.68 101.2 509.375 100.935 508.977C100.67 508.576 100.537 508.091 100.537 507.523C100.537 507.023 100.635 506.617 100.832 506.307C101.029 505.992 101.293 505.746 101.622 505.568C101.952 505.39 102.315 505.258 102.713 505.17C103.115 505.08 103.518 505.008 103.923 504.955C104.454 504.886 104.884 504.835 105.213 504.801C105.546 504.763 105.789 504.701 105.94 504.614C106.096 504.527 106.173 504.375 106.173 504.159V504.114C106.173 503.553 106.02 503.117 105.713 502.807C105.41 502.496 104.95 502.341 104.332 502.341C103.692 502.341 103.19 502.481 102.827 502.761C102.463 503.042 102.207 503.341 102.06 503.659L100.787 503.205C101.014 502.674 101.317 502.261 101.696 501.966C102.079 501.667 102.495 501.458 102.946 501.341C103.401 501.22 103.848 501.159 104.287 501.159C104.567 501.159 104.889 501.193 105.253 501.261C105.62 501.326 105.974 501.46 106.315 501.665C106.66 501.869 106.946 502.178 107.173 502.591C107.401 503.004 107.514 503.557 107.514 504.25V510H106.173V508.818H106.105C106.014 509.008 105.863 509.21 105.651 509.426C105.438 509.642 105.156 509.826 104.804 509.977C104.452 510.129 104.022 510.205 103.514 510.205ZM103.719 509C104.249 509 104.696 508.896 105.06 508.688C105.427 508.479 105.704 508.21 105.889 507.881C106.079 507.551 106.173 507.205 106.173 506.841V505.614C106.116 505.682 105.991 505.744 105.798 505.801C105.609 505.854 105.389 505.902 105.139 505.943C104.893 505.981 104.652 506.015 104.418 506.045C104.187 506.072 103.999 506.095 103.855 506.114C103.507 506.159 103.181 506.233 102.878 506.335C102.579 506.434 102.336 506.583 102.151 506.784C101.969 506.981 101.878 507.25 101.878 507.591C101.878 508.057 102.05 508.409 102.395 508.648C102.743 508.883 103.185 509 103.719 509ZM109.962 510V501.273H111.257V502.591H111.348C111.507 502.159 111.795 501.809 112.212 501.54C112.628 501.271 113.098 501.136 113.621 501.136C113.719 501.136 113.842 501.138 113.99 501.142C114.138 501.146 114.25 501.152 114.325 501.159V502.523C114.28 502.511 114.176 502.494 114.013 502.472C113.854 502.445 113.685 502.432 113.507 502.432C113.083 502.432 112.704 502.521 112.371 502.699C112.041 502.873 111.78 503.116 111.587 503.426C111.397 503.733 111.303 504.083 111.303 504.477V510H109.962ZM122.097 503.227L120.892 503.568C120.816 503.367 120.705 503.172 120.557 502.983C120.413 502.79 120.216 502.631 119.966 502.506C119.716 502.381 119.396 502.318 119.006 502.318C118.472 502.318 118.027 502.441 117.67 502.688C117.318 502.93 117.142 503.239 117.142 503.614C117.142 503.947 117.263 504.21 117.506 504.403C117.748 504.597 118.127 504.758 118.642 504.886L119.938 505.205C120.718 505.394 121.299 505.684 121.682 506.074C122.064 506.46 122.256 506.958 122.256 507.568C122.256 508.068 122.112 508.515 121.824 508.909C121.54 509.303 121.142 509.614 120.631 509.841C120.119 510.068 119.525 510.182 118.847 510.182C117.956 510.182 117.22 509.989 116.636 509.602C116.053 509.216 115.684 508.652 115.528 507.909L116.801 507.591C116.922 508.061 117.152 508.413 117.489 508.648C117.83 508.883 118.275 509 118.824 509C119.449 509 119.945 508.867 120.312 508.602C120.684 508.333 120.869 508.011 120.869 507.636C120.869 507.333 120.763 507.08 120.551 506.875C120.339 506.667 120.013 506.511 119.574 506.409L118.119 506.068C117.32 505.879 116.733 505.585 116.358 505.188C115.987 504.786 115.801 504.284 115.801 503.682C115.801 503.189 115.939 502.754 116.216 502.375C116.496 501.996 116.877 501.699 117.358 501.483C117.843 501.267 118.392 501.159 119.006 501.159C119.869 501.159 120.547 501.348 121.04 501.727C121.536 502.106 121.888 502.606 122.097 503.227ZM132.32 510.182C131.532 510.182 130.84 509.994 130.246 509.619C129.655 509.244 129.193 508.72 128.859 508.045C128.53 507.371 128.365 506.583 128.365 505.682C128.365 504.773 128.53 503.979 128.859 503.301C129.193 502.623 129.655 502.097 130.246 501.722C130.84 501.347 131.532 501.159 132.32 501.159C133.107 501.159 133.797 501.347 134.388 501.722C134.982 502.097 135.445 502.623 135.774 503.301C136.107 503.979 136.274 504.773 136.274 505.682C136.274 506.583 136.107 507.371 135.774 508.045C135.445 508.72 134.982 509.244 134.388 509.619C133.797 509.994 133.107 510.182 132.32 510.182ZM132.32 508.977C132.918 508.977 133.411 508.824 133.797 508.517C134.183 508.21 134.469 507.807 134.655 507.307C134.84 506.807 134.933 506.265 134.933 505.682C134.933 505.098 134.84 504.555 134.655 504.051C134.469 503.547 134.183 503.14 133.797 502.83C133.411 502.519 132.918 502.364 132.32 502.364C131.721 502.364 131.229 502.519 130.842 502.83C130.456 503.14 130.17 503.547 129.984 504.051C129.799 504.555 129.706 505.098 129.706 505.682C129.706 506.265 129.799 506.807 129.984 507.307C130.17 507.807 130.456 508.21 130.842 508.517C131.229 508.824 131.721 508.977 132.32 508.977ZM142.207 501.273V502.409H137.503V501.273H142.207ZM138.912 510V500.068C138.912 499.568 139.029 499.152 139.264 498.818C139.499 498.485 139.804 498.235 140.179 498.068C140.554 497.902 140.95 497.818 141.366 497.818C141.696 497.818 141.965 497.845 142.173 497.898C142.382 497.951 142.537 498 142.639 498.045L142.253 499.205C142.185 499.182 142.09 499.153 141.969 499.119C141.851 499.085 141.696 499.068 141.503 499.068C141.06 499.068 140.74 499.18 140.543 499.403C140.349 499.627 140.253 499.955 140.253 500.386V510H138.912ZM148.768 510V498.364H155.791V499.614H150.178V503.545H155.428V504.795H150.178V508.75H155.882V510H148.768ZM159.149 501.273L161.24 504.841L163.331 501.273H164.876L162.058 505.636L164.876 510H163.331L161.24 506.614L159.149 510H157.604L160.376 505.636L157.604 501.273H159.149ZM166.79 513.273V501.273H168.085V502.659H168.244C168.343 502.508 168.479 502.314 168.653 502.08C168.831 501.841 169.085 501.629 169.415 501.443C169.748 501.254 170.199 501.159 170.767 501.159C171.502 501.159 172.15 501.343 172.71 501.71C173.271 502.078 173.708 502.598 174.023 503.273C174.337 503.947 174.494 504.742 174.494 505.659C174.494 506.583 174.337 507.384 174.023 508.062C173.708 508.737 173.273 509.259 172.716 509.631C172.159 509.998 171.517 510.182 170.79 510.182C170.229 510.182 169.78 510.089 169.443 509.903C169.106 509.714 168.847 509.5 168.665 509.261C168.483 509.019 168.343 508.818 168.244 508.659H168.131V513.273H166.79ZM168.108 505.636C168.108 506.295 168.205 506.877 168.398 507.381C168.591 507.881 168.873 508.273 169.244 508.557C169.616 508.837 170.07 508.977 170.608 508.977C171.169 508.977 171.636 508.83 172.011 508.534C172.39 508.235 172.674 507.833 172.864 507.33C173.057 506.822 173.153 506.258 173.153 505.636C173.153 505.023 173.059 504.47 172.869 503.977C172.684 503.481 172.402 503.089 172.023 502.801C171.648 502.509 171.176 502.364 170.608 502.364C170.063 502.364 169.604 502.502 169.233 502.778C168.862 503.051 168.581 503.434 168.392 503.926C168.203 504.415 168.108 504.985 168.108 505.636ZM180.199 510.182C179.358 510.182 178.633 509.996 178.023 509.625C177.417 509.25 176.949 508.727 176.619 508.057C176.294 507.383 176.131 506.598 176.131 505.705C176.131 504.811 176.294 504.023 176.619 503.341C176.949 502.655 177.407 502.121 177.994 501.739C178.585 501.352 179.275 501.159 180.062 501.159C180.517 501.159 180.966 501.235 181.409 501.386C181.852 501.538 182.256 501.784 182.619 502.125C182.983 502.462 183.273 502.909 183.489 503.466C183.705 504.023 183.812 504.708 183.812 505.523V506.091H177.085V504.932H182.449C182.449 504.439 182.35 504 182.153 503.614C181.96 503.227 181.684 502.922 181.324 502.699C180.968 502.475 180.547 502.364 180.062 502.364C179.528 502.364 179.066 502.496 178.676 502.761C178.29 503.023 177.992 503.364 177.784 503.784C177.576 504.205 177.472 504.655 177.472 505.136V505.909C177.472 506.568 177.585 507.127 177.812 507.585C178.044 508.04 178.364 508.386 178.773 508.625C179.182 508.86 179.657 508.977 180.199 508.977C180.551 508.977 180.869 508.928 181.153 508.83C181.441 508.727 181.689 508.576 181.898 508.375C182.106 508.17 182.267 507.917 182.381 507.614L183.676 507.977C183.54 508.417 183.311 508.803 182.989 509.136C182.667 509.466 182.269 509.723 181.795 509.909C181.322 510.091 180.79 510.182 180.199 510.182ZM185.852 510V501.273H187.148V502.591H187.239C187.398 502.159 187.686 501.809 188.102 501.54C188.519 501.271 188.989 501.136 189.511 501.136C189.61 501.136 189.733 501.138 189.881 501.142C190.028 501.146 190.14 501.152 190.216 501.159V502.523C190.17 502.511 190.066 502.494 189.903 502.472C189.744 502.445 189.576 502.432 189.398 502.432C188.973 502.432 188.595 502.521 188.261 502.699C187.932 502.873 187.67 503.116 187.477 503.426C187.288 503.733 187.193 504.083 187.193 504.477V510H185.852ZM191.805 510V501.273H193.146V510H191.805ZM192.487 499.818C192.226 499.818 192 499.729 191.811 499.551C191.625 499.373 191.533 499.159 191.533 498.909C191.533 498.659 191.625 498.445 191.811 498.267C192 498.089 192.226 498 192.487 498C192.749 498 192.972 498.089 193.158 498.267C193.347 498.445 193.442 498.659 193.442 498.909C193.442 499.159 193.347 499.373 193.158 499.551C192.972 499.729 192.749 499.818 192.487 499.818ZM199.261 510.182C198.42 510.182 197.695 509.996 197.085 509.625C196.479 509.25 196.011 508.727 195.682 508.057C195.356 507.383 195.193 506.598 195.193 505.705C195.193 504.811 195.356 504.023 195.682 503.341C196.011 502.655 196.47 502.121 197.057 501.739C197.648 501.352 198.337 501.159 199.125 501.159C199.58 501.159 200.028 501.235 200.472 501.386C200.915 501.538 201.318 501.784 201.682 502.125C202.045 502.462 202.335 502.909 202.551 503.466C202.767 504.023 202.875 504.708 202.875 505.523V506.091H196.148V504.932H201.511C201.511 504.439 201.413 504 201.216 503.614C201.023 503.227 200.746 502.922 200.386 502.699C200.03 502.475 199.61 502.364 199.125 502.364C198.591 502.364 198.129 502.496 197.739 502.761C197.352 503.023 197.055 503.364 196.847 503.784C196.638 504.205 196.534 504.655 196.534 505.136V505.909C196.534 506.568 196.648 507.127 196.875 507.585C197.106 508.04 197.426 508.386 197.835 508.625C198.244 508.86 198.72 508.977 199.261 508.977C199.614 508.977 199.932 508.928 200.216 508.83C200.504 508.727 200.752 508.576 200.96 508.375C201.169 508.17 201.33 507.917 201.443 507.614L202.739 507.977C202.602 508.417 202.373 508.803 202.051 509.136C201.729 509.466 201.331 509.723 200.858 509.909C200.384 510.091 199.852 510.182 199.261 510.182ZM206.256 504.75V510H204.915V501.273H206.21V502.636H206.324C206.528 502.193 206.839 501.837 207.256 501.568C207.672 501.295 208.21 501.159 208.869 501.159C209.46 501.159 209.977 501.28 210.42 501.523C210.864 501.761 211.208 502.125 211.455 502.614C211.701 503.098 211.824 503.712 211.824 504.455V510H210.483V504.545C210.483 503.86 210.305 503.326 209.949 502.943C209.593 502.557 209.104 502.364 208.483 502.364C208.055 502.364 207.672 502.456 207.335 502.642C207.002 502.828 206.739 503.098 206.545 503.455C206.352 503.811 206.256 504.242 206.256 504.75ZM217.82 510.182C217.001 510.182 216.297 509.989 215.706 509.602C215.115 509.216 214.661 508.684 214.342 508.006C214.024 507.328 213.865 506.553 213.865 505.682C213.865 504.795 214.028 504.013 214.354 503.335C214.683 502.653 215.142 502.121 215.729 501.739C216.32 501.352 217.009 501.159 217.797 501.159C218.411 501.159 218.964 501.273 219.456 501.5C219.948 501.727 220.352 502.045 220.666 502.455C220.981 502.864 221.176 503.341 221.251 503.886H219.911C219.808 503.489 219.581 503.136 219.229 502.83C218.88 502.519 218.411 502.364 217.82 502.364C217.297 502.364 216.839 502.5 216.445 502.773C216.054 503.042 215.75 503.422 215.53 503.915C215.314 504.403 215.206 504.977 215.206 505.636C215.206 506.311 215.312 506.898 215.524 507.398C215.74 507.898 216.043 508.286 216.433 508.562C216.827 508.839 217.289 508.977 217.82 508.977C218.168 508.977 218.484 508.917 218.768 508.795C219.053 508.674 219.293 508.5 219.49 508.273C219.687 508.045 219.827 507.773 219.911 507.455H221.251C221.176 507.97 220.988 508.434 220.689 508.847C220.393 509.256 220.001 509.581 219.513 509.824C219.028 510.062 218.464 510.182 217.82 510.182ZM226.871 510.182C226.03 510.182 225.304 509.996 224.695 509.625C224.089 509.25 223.621 508.727 223.291 508.057C222.965 507.383 222.803 506.598 222.803 505.705C222.803 504.811 222.965 504.023 223.291 503.341C223.621 502.655 224.079 502.121 224.666 501.739C225.257 501.352 225.946 501.159 226.734 501.159C227.189 501.159 227.638 501.235 228.081 501.386C228.524 501.538 228.928 501.784 229.291 502.125C229.655 502.462 229.945 502.909 230.161 503.466C230.376 504.023 230.484 504.708 230.484 505.523V506.091H223.757V504.932H229.121C229.121 504.439 229.022 504 228.825 503.614C228.632 503.227 228.356 502.922 227.996 502.699C227.64 502.475 227.219 502.364 226.734 502.364C226.2 502.364 225.738 502.496 225.348 502.761C224.962 503.023 224.664 503.364 224.456 503.784C224.248 504.205 224.143 504.655 224.143 505.136V505.909C224.143 506.568 224.257 507.127 224.484 507.585C224.715 508.04 225.036 508.386 225.445 508.625C225.854 508.86 226.329 508.977 226.871 508.977C227.223 508.977 227.541 508.928 227.825 508.83C228.113 508.727 228.361 508.576 228.57 508.375C228.778 508.17 228.939 507.917 229.053 507.614L230.348 507.977C230.212 508.417 229.982 508.803 229.661 509.136C229.339 509.466 228.941 509.723 228.467 509.909C227.994 510.091 227.462 510.182 226.871 510.182Z" fill="white"/>
<path d="M116.448 479V443.032H110.56L112.928 434.2H125.28V479H116.448ZM132.935 479V471.128C134.215 470.232 135.772 469.08 137.607 467.672C139.442 466.243 141.351 464.675 143.335 462.968C145.319 461.24 147.164 459.491 148.871 457.72C150.599 455.949 151.996 454.275 153.063 452.696C154.151 451.117 154.695 449.763 154.695 448.632C154.695 447.459 154.407 446.381 153.831 445.4C153.255 444.419 152.487 443.64 151.527 443.064C150.567 442.488 149.5 442.2 148.327 442.2C147.154 442.2 146.076 442.488 145.095 443.064C144.135 443.64 143.356 444.419 142.759 445.4C142.183 446.381 141.895 447.459 141.895 448.632H133.063C133.063 445.752 133.756 443.16 135.143 440.856C136.551 438.552 138.407 436.728 140.711 435.384C143.036 434.04 145.575 433.368 148.327 433.368C151.122 433.368 153.671 434.051 155.975 435.416C158.279 436.781 160.114 438.627 161.479 440.952C162.844 443.256 163.527 445.816 163.527 448.632C163.527 450.083 163.303 451.491 162.855 452.856C162.428 454.221 161.799 455.587 160.967 456.952C160.135 458.296 159.122 459.672 157.927 461.08C156.754 462.467 155.42 463.917 153.927 465.432C152.455 466.925 150.866 468.504 149.159 470.168H163.655V479H132.935ZM181.644 475.8V464.216H170.06V455.384H181.644V443.8H190.476V455.384H202.06V464.216H190.476V475.8H181.644Z" fill="#F1C30C"/>
</svg>
