<svg width="29" height="28" viewBox="0 0 29 28" fill="none" xmlns="http://www.w3.org/2000/svg">
<path d="M5.83222 12.1178C8.15222 16.52 11.89 20.1289 16.4494 22.3689L19.9939 18.9467C20.445 18.5111 21.0733 18.3867 21.6372 18.5578C23.4417 19.1333 25.375 19.4444 27.3889 19.4444C27.8162 19.4444 28.226 19.6083 28.5281 19.9001C28.8303 20.1918 29 20.5874 29 21V26.4444C29 26.857 28.8303 27.2527 28.5281 27.5444C28.226 27.8361 27.8162 28 27.3889 28C20.1249 28 13.1584 25.2139 8.02202 20.2546C2.88561 15.2953 0 8.56906 0 1.55556C0 1.143 0.169742 0.747335 0.471883 0.455612C0.774025 0.163888 1.18382 0 1.61111 0H7.25C7.67729 0 8.08709 0.163888 8.38923 0.455612C8.69137 0.747335 8.86111 1.143 8.86111 1.55556C8.86111 3.5 9.18333 5.36667 9.77944 7.10889C9.95667 7.65333 9.82778 8.26 9.37667 8.69556L5.83222 12.1178Z" fill="#F1C30C"/>
</svg>
