<svg width="87" height="19" viewBox="0 0 87 19" fill="none" xmlns="http://www.w3.org/2000/svg">
<path d="M3.70267 19L5.27569 11.975L0 7.25L6.96972 6.625L9.68017 0L12.3906 6.625L19.3603 7.25L14.0846 11.975L15.6577 19L9.68017 15.275L3.70267 19Z" fill="#12372A"/>
<path d="M25.9668 19L27.5399 11.975L22.2642 7.25L29.2339 6.625L31.9443 0L34.6548 6.625L41.6245 7.25L36.3488 11.975L37.9218 19L31.9443 15.275L25.9668 19Z" fill="#12372A"/>
<path d="M48.2315 19L49.8045 11.975L44.5288 7.25L51.4985 6.625L54.209 0L56.9194 6.625L63.8892 7.25L58.6135 11.975L60.1865 19L54.209 15.275L48.2315 19Z" fill="#12372A"/>
<path d="M70.4956 19L72.0687 11.975L66.793 7.25L73.7627 6.625L76.4731 0L79.1836 6.625L86.1533 7.25L80.8776 11.975L82.4506 19L76.4731 15.275L70.4956 19Z" fill="#12372A"/>
</svg>
